<mxfile host="app.diagrams.net" modified="2023-12-10T03:18:49.863Z" agent="Mozilla/5.0 (Macintosh; Intel Mac OS X 10_15_7) AppleWebKit/537.36 (KHTML, like Gecko) Chrome/119.0.0.0 Safari/537.36" etag="T3ICgo8suPwxA2zwExkB" version="22.1.7" type="device">
  <diagram id="nri3VTkQpvAMr7iWC0OG" name="第 1 页">
    <mxGraphModel dx="620" dy="373" grid="1" gridSize="10" guides="1" tooltips="1" connect="1" arrows="1" fold="1" page="1" pageScale="1" pageWidth="827" pageHeight="1169" math="0" shadow="0">
      <root>
        <mxCell id="0" />
        <mxCell id="1" parent="0" />
        <mxCell id="kYF5OoC-ksNNK1NrsK4u-1" value="" style="rounded=0;whiteSpace=wrap;html=1;fillColor=#e1d5e7;strokeColor=#9673a6;" vertex="1" parent="1">
          <mxGeometry x="120" y="87.5" width="280" height="162.5" as="geometry" />
        </mxCell>
        <mxCell id="kYF5OoC-ksNNK1NrsK4u-3" value="发joiejwoifjjwejjfoewjfioj；iasjdjfmciojdj发joiejwoifjjwejjfoewjfioj；iasjdjfmciojdj发joiejwoifjjwejjfoewjfioj；iasjdjfmciojdj发joiejwoifjjwejjfoewjfioj；iasjdjfmciojdj发joiejwoifjjwejjfoewjfioj；iasjdjfmciojdj发joiejwoifjjwejjfoewjfioj；iasjdjfmciojdj发joiejwoifjjwejjfoewjfioj；iasjdjfmciojdj发joiejwoifjjwejjfoewjfioj；iasjdjfmciojdj" style="rounded=0;whiteSpace=wrap;html=1;" vertex="1" parent="1">
          <mxGeometry x="140" y="105" width="220" height="115" as="geometry" />
        </mxCell>
        <mxCell id="kYF5OoC-ksNNK1NrsK4u-4" value="" style="rounded=1;whiteSpace=wrap;html=1;" vertex="1" parent="1">
          <mxGeometry x="360" y="105" width="20" height="115" as="geometry" />
        </mxCell>
        <mxCell id="kYF5OoC-ksNNK1NrsK4u-5" value="" style="rounded=1;whiteSpace=wrap;html=1;" vertex="1" parent="1">
          <mxGeometry x="360" y="110" width="20" height="60" as="geometry" />
        </mxCell>
        <mxCell id="kYF5OoC-ksNNK1NrsK4u-6" value="" style="rounded=1;whiteSpace=wrap;html=1;rotation=90;" vertex="1" parent="1">
          <mxGeometry x="243.5" y="116.5" width="20" height="228" as="geometry" />
        </mxCell>
        <mxCell id="kYF5OoC-ksNNK1NrsK4u-7" value="" style="rounded=1;whiteSpace=wrap;html=1;rotation=89;" vertex="1" parent="1">
          <mxGeometry x="170" y="200.5" width="20" height="60" as="geometry" />
        </mxCell>
        <mxCell id="kYF5OoC-ksNNK1NrsK4u-8" value="" style="endArrow=classic;startArrow=classic;html=1;rounded=0;" edge="1" parent="1">
          <mxGeometry width="50" height="50" relative="1" as="geometry">
            <mxPoint x="140" y="280" as="sourcePoint" />
            <mxPoint x="360" y="280" as="targetPoint" />
          </mxGeometry>
        </mxCell>
        <mxCell id="kYF5OoC-ksNNK1NrsK4u-9" value="" style="endArrow=none;dashed=1;html=1;dashPattern=1 3;strokeWidth=2;rounded=0;exitX=0;exitY=1;exitDx=0;exitDy=0;" edge="1" parent="1" source="kYF5OoC-ksNNK1NrsK4u-6">
          <mxGeometry width="50" height="50" relative="1" as="geometry">
            <mxPoint x="280" y="230" as="sourcePoint" />
            <mxPoint x="140" y="290" as="targetPoint" />
          </mxGeometry>
        </mxCell>
        <mxCell id="kYF5OoC-ksNNK1NrsK4u-10" value="" style="endArrow=none;dashed=1;html=1;dashPattern=1 3;strokeWidth=2;rounded=0;exitX=0;exitY=1;exitDx=0;exitDy=0;" edge="1" parent="1">
          <mxGeometry width="50" height="50" relative="1" as="geometry">
            <mxPoint x="360" y="231" as="sourcePoint" />
            <mxPoint x="360" y="290" as="targetPoint" />
          </mxGeometry>
        </mxCell>
        <mxCell id="kYF5OoC-ksNNK1NrsK4u-11" value="clientWidth" style="text;html=1;align=center;verticalAlign=middle;resizable=0;points=[];autosize=1;strokeColor=none;fillColor=none;" vertex="1" parent="1">
          <mxGeometry x="213.5" y="280" width="80" height="30" as="geometry" />
        </mxCell>
        <mxCell id="kYF5OoC-ksNNK1NrsK4u-12" value="border" style="text;html=1;strokeColor=none;fillColor=none;align=center;verticalAlign=middle;whiteSpace=wrap;rounded=0;" vertex="1" parent="1">
          <mxGeometry x="223.5" y="80" width="60" height="30" as="geometry" />
        </mxCell>
        <mxCell id="kYF5OoC-ksNNK1NrsK4u-14" value="" style="endArrow=none;dashed=1;html=1;dashPattern=1 3;strokeWidth=2;rounded=0;exitX=0;exitY=1;exitDx=0;exitDy=0;" edge="1" parent="1">
          <mxGeometry width="50" height="50" relative="1" as="geometry">
            <mxPoint x="120" y="250" as="sourcePoint" />
            <mxPoint x="120" y="319" as="targetPoint" />
          </mxGeometry>
        </mxCell>
        <mxCell id="kYF5OoC-ksNNK1NrsK4u-15" value="" style="endArrow=none;dashed=1;html=1;dashPattern=1 3;strokeWidth=2;rounded=0;exitX=0;exitY=1;exitDx=0;exitDy=0;" edge="1" parent="1">
          <mxGeometry width="50" height="50" relative="1" as="geometry">
            <mxPoint x="400" y="250" as="sourcePoint" />
            <mxPoint x="400" y="319" as="targetPoint" />
          </mxGeometry>
        </mxCell>
        <mxCell id="kYF5OoC-ksNNK1NrsK4u-16" value="" style="endArrow=classic;startArrow=classic;html=1;rounded=0;" edge="1" parent="1">
          <mxGeometry width="50" height="50" relative="1" as="geometry">
            <mxPoint x="120" y="310" as="sourcePoint" />
            <mxPoint x="400" y="310" as="targetPoint" />
          </mxGeometry>
        </mxCell>
        <mxCell id="kYF5OoC-ksNNK1NrsK4u-17" value="offsetWidth" style="text;html=1;align=center;verticalAlign=middle;resizable=0;points=[];autosize=1;strokeColor=none;fillColor=none;" vertex="1" parent="1">
          <mxGeometry x="200" y="308" width="80" height="30" as="geometry" />
        </mxCell>
      </root>
    </mxGraphModel>
  </diagram>
</mxfile>
